HIERARCHY
ROOT Hips
{
  OFFSET 263.056 91.6644 -274.608
  CHANNELS 6 Xposition Yposition Zposition Zrotation Xrotation Yrotation
  JOINT LeftUpLeg
  {
    OFFSET 8.64259 1.95398 -2.38835
    CHANNELS 3 Zrotation Xrotation Yrotation
    JOINT LeftLeg
    {
      OFFSET 43.7702 0 0
      CHANNELS 3 Zrotation Xrotation Yrotation
      JOINT LeftFoot
      {
        OFFSET 40.6238 0 0
        CHANNELS 3 Zrotation Xrotation Yrotation
        JOINT LeftToeBase
        {
          OFFSET 12.7242 0 0
          CHANNELS 3 Zrotation Xrotation Yrotation
          End Site
          {
            OFFSET 0 0 0
          }
        }
      }
    }
  }
  JOINT RightUpLeg
  {
    OFFSET -8.2249 1.95398 -2.59336
    CHANNELS 3 Zrotation Xrotation Yrotation
    JOINT RightLeg
    {
      OFFSET 43.5653 0 0
      CHANNELS 3 Zrotation Xrotation Yrotation
      JOINT RightFoot
      {
        OFFSET 40.6238 0 0
        CHANNELS 3 Zrotation Xrotation Yrotation
        JOINT RightToeBase
        {
          OFFSET 12.7242 0 0
          CHANNELS 3 Zrotation Xrotation Yrotation
          End Site
          {
            OFFSET 0 0 0
          }
        }
      }
    }
  }
  JOINT Spine
  {
    OFFSET 0.165834 0.87714 6.61349
    CHANNELS 3 Zrotation Xrotation Yrotation
    JOINT Spine1
    {
      OFFSET 7.38963 1.71661e-005 0
      CHANNELS 3 Zrotation Xrotation Yrotation
      JOINT Spine2
      {
        OFFSET 11.9445 1.14441e-005 0
        CHANNELS 3 Zrotation Xrotation Yrotation
        JOINT Spine3
        {
          OFFSET 14.7254 4.19617e-005 0
          CHANNELS 3 Zrotation Xrotation Yrotation
          JOINT Spine4
          {
            OFFSET 10.9679 0 0
            CHANNELS 3 Zrotation Xrotation Yrotation
            JOINT RightShoulder
            {
              OFFSET 2.46616 -1.6653 3.69651
              CHANNELS 3 Zrotation Xrotation Yrotation
              JOINT RightArm
              {
                OFFSET 13.0012 0 0
                CHANNELS 3 Zrotation Xrotation Yrotation
                JOINT RightForeArm
                {
                  OFFSET 28.7848 1.52588e-005 0
                  CHANNELS 3 Zrotation Xrotation Yrotation
                  JOINT RightHand
                  {
                    OFFSET 26.5688 1.52588e-005 0
                    CHANNELS 3 Zrotation Xrotation Yrotation
                    End Site
                    {
                      OFFSET 0 0 0
                    }
                  }
                }
              }
            }
            JOINT LeftShoulder
            {
              OFFSET 2.38034 -1.29275 -3.7523
              CHANNELS 3 Zrotation Xrotation Yrotation
              JOINT LeftArm
              {
                OFFSET 16.3182 6.10352e-005 0
                CHANNELS 3 Zrotation Xrotation Yrotation
                JOINT LeftForeArm
                {
                  OFFSET 27.0901 0 0
                  CHANNELS 3 Zrotation Xrotation Yrotation
                  JOINT LeftHand
                  {
                    OFFSET 24.5451 1.52588e-005 0
                    CHANNELS 3 Zrotation Xrotation Yrotation
                    End Site
                    {
                      OFFSET 0 0 0
                    }
                  }
                }
              }
            }
            JOINT Neck
            {
              OFFSET 5.0226 -0.0266342 0
              CHANNELS 3 Zrotation Xrotation Yrotation
              JOINT Head
              {
                OFFSET 6.69364 2.86102e-005 0
                CHANNELS 3 Zrotation Xrotation Yrotation
                End Site
                {
                  OFFSET 0 0 0
                }
              }
            }
          }
        }
      }
    }
  }
}
MOTION
Frames:	6
Frame Time:	0.0416667
-13.1174 97.5268 -159.374 -143.38 -88.3383 -144.993 -172.625 2.22417 90.9643 -6.72146 13.6331 -0.1911 57.6203 2.61857 12.5648 35.4222 7.24878 -10.7777 176.396 4.46439 86.9621 -14.7267 7.66496 -1.33725 66.2649 -1.59694 -0.845227 31.2324 -0.264318 10.0165 -0.0242011 6.90499 -89.6818 13.0632 0.105001 0.62361 1.3921 0.132345 0.618383 -21.1419 -0.0872716 0.626332 -1.12921 -0.0872712 0.626335 79.5545 -53.9301 -115.013 26.8256 -11.1396 6.43475 -6.08172 -13.7942 -37.1504 -3.78435 -0.535278 10.3289 -105.259 -43.4767 53.4546 -28.8866 11.0734 3.93179 2.49176 10.6417 -28.1161 9.56735 0.782382 3.96294 8.53788 0.939121 2.02076 -0.992522 0.476331 -0.585848 
-13.1177 97.5089 -159.37 -143.594 -88.3018 -145.263 -172.701 2.16387 90.9029 -6.7888 12.9454 -0.0608377 58.1837 2.9327 11.7491 34.4086 6.31623 -10.7288 176.431 4.52023 86.917 -14.8861 7.60098 -1.41123 66.267 -1.57235 -0.830932 31.4443 -0.236597 10.115 -0.013701 6.90989 -89.6869 13.0534 0.123353 0.611303 1.38228 0.15014 0.605279 -21.1517 -0.0660688 0.620112 -1.13907 -0.0660651 0.620116 79.5911 -53.9676 -114.947 26.6332 -11.1807 6.32645 -5.95597 -13.4794 -37.0593 -3.85408 -0.541424 10.2815 -105.431 -43.492 53.2047 -28.9283 11.0907 3.96848 2.21423 10.1185 -27.9505 9.57926 0.813554 4.25119 8.69637 0.889444 2.2717 -1.2025 0.36699 -0.862133 
-13.0992 97.4933 -159.383 -123.278 -88.4388 -125.015 -172.756 2.59732 90.7699 -6.68567 12.9283 -0.136643 57.9682 2.84505 12.1821 34.5871 6.48018 -11.0488 176.496 5.01846 86.8936 -14.73 7.70141 -1.40555 66.3665 -1.6606 -0.881854 31.1991 -0.293111 10.5845 0.0257705 6.86258 -89.701 13.1478 0.195191 0.574211 1.47678 0.220272 0.565062 -21.0574 0.0135996 0.606333 -1.04472 0.0135924 0.606326 79.8095 -53.6407 -114.76 26.8875 -10.9248 6.85242 -5.3222 -15.0213 -36.7175 -4.85078 -0.65341 9.8371 -105.677 -43.6798 52.9322 -28.7897 11.3196 3.81515 1.83762 9.71538 -27.666 9.93803 0.830744 4.15658 8.7475 0.866154 2.46657 -1.35125 0.302425 -0.865036 
-13.0568 97.4912 -159.423 -137.676 -88.5565 -139.082 -172.618 2.7959 91.1012 -7.28148 13.4893 -0.158597 58.355 3.10017 12.2827 34.2364 6.15686 -10.6102 176.597 4.6663 87.2126 -14.5061 8.13398 -1.36719 66.1857 -1.60933 -0.854472 31.1276 -0.296145 10.3953 -0.0122507 6.88184 -89.7354 13.1097 0.103081 0.51682 1.43871 0.125724 0.511778 -21.0956 -0.0570076 0.523907 -1.08298 -0.0570117 0.523905 79.7466 -53.6645 -114.84 26.9406 -10.8508 6.95785 -5.28101 -15.3429 -36.71 -6.16747 -0.691459 7.18102 -105.458 -43.6086 53.2235 -28.9418 11.3837 3.71375 1.86762 10.0094 -27.4738 9.78902 0.796396 3.94066 8.93811 0.898233 2.26319 -1.84511 0.379185 -0.728034 
-13.0352 97.4915 -159.469 -143.418 -88.4862 -144.795 -172.631 2.7828 91.1103 -7.57994 13.0466 -0.0716205 58.6737 3.13407 11.6557 34.2263 6.14627 -10.3482 176.567 4.45909 87.2093 -14.3968 8.10382 -1.35536 66.3202 -1.69524 -0.904514 30.8529 -0.337596 10.3771 -0.00998519 6.89772 -89.7515 13.078 0.0997301 0.484809 1.40693 0.120968 0.479949 -21.1275 -0.0505907 0.492362 -1.11485 -0.0505813 0.492373 79.6558 -53.5779 -115.002 26.9578 -10.6714 7.1579 -5.43788 -15.511 -36.986 -5.72142 -0.641342 6.82324 -105.64 -43.7028 52.9985 -28.8585 11.5262 3.84635 1.74238 9.68494 -27.743 10.0421 0.876408 4.50266 8.8405 0.890576 2.40002 -1.87429 0.343385 -0.810321 
-13.0253 97.4705 -159.472 -141.869 -88.5422 -143.332 -172.583 2.78992 91.0753 -7.37097 13.4 -0.211272 58.4196 3.05527 12.0211 34.3802 6.2892 -10.4089 176.636 4.74892 87.1593 -14.8034 8.13887 -1.46127 66.1087 -1.51433 -0.800259 31.5466 -0.232089 10.3975 0.0116613 6.88284 -89.7454 13.1076 0.145681 0.491303 1.43662 0.167166 0.48441 -21.0978 -0.00871064 0.512376 -1.08515 -0.0087055 0.512376 79.895 -53.5353 -114.677 27.1077 -10.5761 7.21092 -5.09652 -15.0184 -37.0236 -5.75547 -0.629332 6.49291 -105.813 -43.6222 52.7012 -28.9378 11.4566 3.89665 1.80808 9.80465 -27.6892 10.117 0.893699 4.60621 8.61834 0.781637 2.44814 -1.67211 0.227725 -0.965334 
